<svg xmlns="http://www.w3.org/2000/svg" width="37" height="13.685" viewBox="0 0 37 13.685"><path d="M36.493,10.644h0l.338-.507C37,9.968,37,9.968,37,9.8s0-.338-.169-.338l-.507-.507V7.1c0-.169,0-.338-.169-.338,0,0-1.858-2.027-9.123-3.379A15.9,15.9,0,0,0,17.74,0,22.415,22.415,0,0,0,6.589,2.7l-5.068.676c-.169,0-.338.169-.338.507v.507L.169,5.406A.621.621,0,0,0,0,5.913S.338,7.6.507,9.292a2.9,2.9,0,0,0,2.872,2.365h0a3.83,3.83,0,0,0,6.758,0H25.511a3.83,3.83,0,0,0,6.758,0h4.224A.448.448,0,0,0,37,11.151.448.448,0,0,0,36.493,10.644ZM6.758,12.671A2.848,2.848,0,0,1,3.886,9.8,2.708,2.708,0,0,1,6.758,7.1,2.848,2.848,0,0,1,9.63,9.968,2.708,2.708,0,0,1,6.758,12.671Zm22.132,0A2.848,2.848,0,0,1,26.018,9.8,2.75,2.75,0,0,1,28.89,6.927,2.848,2.848,0,0,1,31.763,9.8,2.75,2.75,0,0,1,28.89,12.671Zm0-6.758A3.823,3.823,0,0,0,25,9.8a1.523,1.523,0,0,0,.169.845h-14.7c0-.338.169-.507.169-.845A3.823,3.823,0,0,0,6.758,5.913,3.823,3.823,0,0,0,2.872,9.8v.845A2.071,2.071,0,0,1,1.521,9.123a27.79,27.79,0,0,0-.507-3.041L2.027,4.9c0-.169.169-.169.169-.338V4.393l4.562-.676h.169l1.689-.845c.507.338,4.224,1.521,17.909,1.521h0c6.082,1.014,8.279,2.7,8.785,3.041V9.123c0,.169,0,.338.169.338l.338.338-.676.845H32.776c0-.338.169-.507.169-.845A4.205,4.205,0,0,0,28.89,5.913ZM14.7,1.183a18.363,18.363,0,0,1,3.041-.169,15.513,15.513,0,0,1,7.434,2.2c-3.717,0-7.1-.169-9.8-.338ZM10.137,2.2a18.256,18.256,0,0,1,3.548-.845l.676,1.521C12.164,2.534,10.982,2.365,10.137,2.2Z" fill="#fff"/></svg>