<svg xmlns="http://www.w3.org/2000/svg" width="32" height="32" viewBox="0 0 32 32"><g transform="translate(3 6.387)"><path d="M0,0H32V32H0Z" transform="translate(-3 -6.387)" fill="none"/><path d="M23.1,0H3A2.946,2.946,0,0,0,0,3V14.6a3.009,3.009,0,0,0,3,3H23.1a3.009,3.009,0,0,0,3-3V3A3.075,3.075,0,0,0,23.1,0Zm1.2,8.1v6.5a1.216,1.216,0,0,1-1.2,1.2H3a1.216,1.216,0,0,1-1.2-1.2V8.1Zm0-3.2V6.3H1.8V4.9Zm0-1.9v.2H1.8V3A1.216,1.216,0,0,1,3,1.8H23.1A1.216,1.216,0,0,1,24.3,3Z" fill="#2d5bff"/><path d="M4,11.3H8.2a.9.9,0,1,0,0-1.8H4a.9.9,0,0,0-.9.9A1.055,1.055,0,0,0,4,11.3Z" fill="#2d5bff"/><path d="M4,14.4h7.4a.9.9,0,1,0,0-1.8H4a.9.9,0,0,0-.9.9A.967.967,0,0,0,4,14.4Z" fill="#2d5bff"/></g></svg>