<svg xmlns="http://www.w3.org/2000/svg" width="32" height="32" viewBox="0 0 32 32"><g transform="translate(0 0.5)"><path d="M0,0H32V32H0Z" transform="translate(1 -0.5)" fill="none"/><path d="M5528.1,2588.6a8.431,8.431,0,0,1-2.7-2.6h-.2a2.4,2.4,0,0,1-2-1.2l-.6.3a2.012,2.012,0,0,1-1.1.3,2.245,2.245,0,0,1-2.1-1.2v-.1a3.091,3.091,0,0,1-.3-1.3,2.294,2.294,0,0,1-1.7-1.2v-.1a2.237,2.237,0,0,1-.1-2.1,1.954,1.954,0,0,1-.9-.9v-.1a2.3,2.3,0,0,1-.2-1.8,1.93,1.93,0,0,1,1.1-1.4l.6-.3-4.5-8.3a2.274,2.274,0,0,1-.1-1.8,1.936,1.936,0,0,1,1.1-1.4l8.5-4.6a2.016,2.016,0,0,1,1.1-.3,2.748,2.748,0,0,1,2.2,1.2l5.2,9.6a5.026,5.026,0,0,1,3,.2,4.473,4.473,0,0,1,2.3,2.7,4.5,4.5,0,0,0,.2.8c1,2.9,2.4,6.8.8,10.9a.752.752,0,0,1-.7.5c-.1,0-.2-.1-.3-.1a.7.7,0,0,1-.4-1c1.4-3.6.2-7-.8-9.8-.1-.2-.1-.4-.2-.6a3.075,3.075,0,0,0-1.5-1.8,5,5,0,0,0-4,.5c-.7.3-1.6.9-1.4,1.4.3.8,1.3.7,1.3.7h.1a2.414,2.414,0,0,1,2.2.9,2.58,2.58,0,0,1,.1,2.1c-.4,2.2,0,3.6,1.5,4.3a.806.806,0,1,1-.8,1.4.1.1,0,0,0-.1-.1l-5.7,3.1a5.5,5.5,0,0,0,1.9,1.8.909.909,0,0,1,.3,1.1.843.843,0,0,1-.7.4C5528.3,2588.7,5528.2,2588.7,5528.1,2588.6Zm-3.8-5.2.3.6c.2.2.4.4.6.4s.3,0,.4-.1l5.7-3.1a3.475,3.475,0,0,1-.7-1.2Zm-3.1-1.2a1,1,0,0,0-.4.5,1.27,1.27,0,0,0,.1.6v.1a.843.843,0,0,0,.7.4c.2,0,.3,0,.4-.1l.5-.3-.8-1.5Zm-5.3-14.4,7.8,14.1,6.7-3.6a8.206,8.206,0,0,1,.2-2.1v-.1c0-.2.1-.6,0-.7s-.3-.2-.8-.2a2.653,2.653,0,0,1-2.9-1.7c-.4-1.3.4-2.6,2.2-3.4.2-.1.5-.2.7-.3l-4-7.4Zm3.8,11.5-.5.3a.838.838,0,0,0-.3,1.2.568.568,0,0,0,.7.4c.2,0,.3,0,.4-.1l.5-.3.5-.3-.8-1.5Zm-1.6-2.8a.989.989,0,0,0-.4.5,1.286,1.286,0,0,0,.1.6v.1a.845.845,0,0,0,.7.4c.2,0,.3,0,.4-.1l.5-.3-.8-1.5Zm5.6-16.4-8.5,4.6a1,1,0,0,0-.4.5.638.638,0,0,0,0,.6l.3.6,9.9-5.4-.2-.6a.843.843,0,0,0-.7-.4C5523.9,2560,5523.8,2560,5523.7,2560.1Zm-12,11.9a.9.9,0,1,1,0-1.8h1.1a.9.9,0,0,1,0,1.8Zm-3-3.2a.9.9,0,0,1-.9-.9.881.881,0,0,1,.9-.8h2.4a.88.88,0,0,1,.9.8.9.9,0,0,1-.9.9Zm-2.8-3.1a.9.9,0,0,1,0-1.8h3.9a.9.9,0,0,1,0,1.8Z" transform="translate(-5505 -2558)" fill="#ff9057"/></g></svg>