<svg xmlns="http://www.w3.org/2000/svg" width="32" height="32" viewBox="0 0 32 32"><g transform="translate(3 7.387)"><path d="M0,0H32V32H0Z" transform="translate(-3 -7.387)" fill="none"/><path d="M23,0H3A2.946,2.946,0,0,0,0,3V14.6a2.946,2.946,0,0,0,3,3H23a2.946,2.946,0,0,0,3-3V3A2.946,2.946,0,0,0,23,0ZM7.9,15.9H3a1.324,1.324,0,0,1-1.3-1.3V7.2H7A3.967,3.967,0,0,0,5.8,9.8a.5.5,0,0,0,1,0,3.121,3.121,0,0,1,1.1-2V11h0ZM5.3,4.5c-.1-.2.1-.4.3-.8a.864.864,0,0,1,.6-.3h.1c.5.2,1.1,1.4,1.4,2.5C6.7,5.6,5.5,5,5.3,4.5ZM7.9,2.1h0V3.6A2.334,2.334,0,0,0,6.7,2.4,2.026,2.026,0,0,0,4.8,3a1.861,1.861,0,0,0-.6,1.8A2.156,2.156,0,0,0,5.4,6.1H1.7V3A1.324,1.324,0,0,1,3,1.7H7.9ZM24.3,14.6A1.324,1.324,0,0,1,23,15.9H9V10.8H9v-3a3.348,3.348,0,0,1,1.1,2,.5.5,0,0,0,1,0A3.872,3.872,0,0,0,9.8,7.1H24.3ZM9.2,5.9a4.832,4.832,0,0,1,1.4-2.5h.1a.864.864,0,0,1,.6.3c.3.3.4.5.3.7C11.4,5,10.3,5.6,9.2,5.9Zm15.1.2H11.6a2.54,2.54,0,0,0,1.2-1.3A1.861,1.861,0,0,0,12.2,3a1.861,1.861,0,0,0-1.8-.6A1.985,1.985,0,0,0,9,3.5V1.7H23A1.324,1.324,0,0,1,24.3,3Z" fill="#2d5bff"/><circle cx="0.9" cy="0.9" r="0.9" transform="translate(21.1 12.8)" fill="#2d5bff"/><circle cx="0.9" cy="0.9" r="0.9" transform="translate(18.2 12.8)" fill="#2d5bff"/><circle cx="0.9" cy="0.9" r="0.9" transform="translate(15.2 12.8)" fill="#2d5bff"/></g></svg>