<svg xmlns="http://www.w3.org/2000/svg" width="32" height="32" viewBox="0 0 32 32"><g transform="translate(-234 -527.613)"><path d="M0,0H32V32H0Z" transform="translate(234 527.613)" fill="none"/><path d="M21.464,14.044a12.119,12.119,0,0,0-.442-3.533v-.177A10.217,10.217,0,0,0,10.776,0,10.348,10.348,0,0,0,.442,10.334a.531.531,0,0,0,.088.353,14.074,14.074,0,0,0-.53,3.8,8.607,8.607,0,0,0,1.06,4.858,1.894,1.894,0,0,0,1.678.972h1.59a1.677,1.677,0,0,0,1.678-1.678V9.8A1.737,1.737,0,0,0,4.328,8.126H2.562c-.088,0-.265.088-.353.088A8.714,8.714,0,0,1,12.719,1.767a8.881,8.881,0,0,1,6.448,6.36.96.96,0,0,0-.442-.088h-1.5a1.677,1.677,0,0,0-1.678,1.678v8.921a1.737,1.737,0,0,0,1.678,1.678h1.59A7,7,0,0,1,14.927,24.2,2.649,2.649,0,1,0,12.543,28,2.517,2.517,0,0,0,15.1,25.7a8.227,8.227,0,0,0,5.565-6.89A11.622,11.622,0,0,0,21.464,14.044ZM2.915,9.8h1.5v8.921H2.738c-.353-.177-1.148-.972-1.148-4.24C1.59,10.776,2.65,9.893,2.915,9.8ZM13.691,25.35A1.148,1.148,0,1,1,12.543,24.2,1.169,1.169,0,0,1,13.691,25.35Zm4.858-6.625h-1.5V9.8h1.678c.265,0,1.148.972,1.148,4.24h0C19.874,17.754,18.814,18.637,18.549,18.726Z" transform="translate(239 529.613)" fill="#2d5bff"/></g></svg>