<svg xmlns="http://www.w3.org/2000/svg" width="32" height="32" viewBox="0 0 32 32"><g transform="translate(6 7.387)"><path d="M9.8,17.6A7.83,7.83,0,0,1,2.3,12a1.02,1.02,0,0,0-1.2-.6.955.955,0,0,0-.6,1.1A9.819,9.819,0,0,0,12.6,19,9.775,9.775,0,0,0,19.1,6.9,9.66,9.66,0,0,0,9.8,0c-3,0-7.1,2.6-7.6,4.3L1.8,1.9a.846.846,0,0,0-1-.8.974.974,0,0,0-.8,1L.6,6.6a.948.948,0,0,0,.9.8h.1l4.1-.5a.9.9,0,0,0,.8-1,.908.908,0,0,0-1-.8l-2.2.3A7.863,7.863,0,1,1,9.8,17.6Z" fill="#2d5bff"/><path d="M9.2,11.2l3.7,2.9c.2.1.3.2.5.2a.851.851,0,0,0,.6-1.5h0l-3.3-2.6v-6a.9.9,0,0,0-.9-.9.967.967,0,0,0-.9.9h0v6.3A.779.779,0,0,0,9.2,11.2Z" fill="#2d5bff"/><path d="M0,0H32V32H0Z" transform="translate(-6 -7.387)" fill="none"/></g></svg>