<svg xmlns="http://www.w3.org/2000/svg" width="32" height="32" viewBox="0 0 32 32"><g transform="translate(28.799 7.625) rotate(90)"><path d="M0,0H32V32H0Z" transform="translate(-7.625 28.799) rotate(-90)" fill="none"/><path d="M5493.844,2513.174a.848.848,0,0,1-.844-.844v-7.594a.844.844,0,1,1,1.688,0v6.75h16.455v-6.75a.844.844,0,1,1,1.688,0v7.594a.847.847,0,0,1-.844.844Zm8.846-5.4a.843.843,0,0,1-.309-.183l-6.751-6.258a.846.846,0,0,1,1.154-1.238l5.358,4.979v-12.854a.843.843,0,1,1,1.687,0v12.812l5.374-4.95a.846.846,0,0,1,1.139,1.252l-6.652,6.118a.856.856,0,0,1-.7.379A1.066,1.066,0,0,1,5502.69,2507.773Z" transform="translate(-5494.625 -2489.375)" fill="#f971a3"/></g></svg>