<svg xmlns="http://www.w3.org/2000/svg" width="32" height="32" viewBox="0 0 32 32"><g transform="translate(4.498 4.959)"><path d="M0,0H32V32H0Z" transform="translate(-4.498 -4.959)" fill="none"/><path d="M1.634,14.893l1.069.49a.941.941,0,0,1,.49,1.173l-.416,1.1a2.637,2.637,0,0,0,.312,2.48,2.682,2.682,0,0,0,2.228,1.173,2.71,2.71,0,0,0,.965-.178l1.1-.416a.8.8,0,0,1,.327-.059.924.924,0,0,1,.847.55l.49,1.069a2.707,2.707,0,0,0,4.931,0l.49-1.069a.933.933,0,0,1,.847-.55.846.846,0,0,1,.327.059l1.1.431a2.727,2.727,0,0,0,.965.193h0a2.775,2.775,0,0,0,2.228-1.188,2.714,2.714,0,0,0,.312-2.5l-.416-1.1a.941.941,0,0,1,.49-1.173l1.069-.49a2.707,2.707,0,0,0,0-4.931l-1.069-.49a.941.941,0,0,1-.49-1.173l.416-1.1a2.637,2.637,0,0,0-.312-2.48A2.682,2.682,0,0,0,17.7,3.546a2.71,2.71,0,0,0-.965.178l-1.1.416a.8.8,0,0,1-.327.059.924.924,0,0,1-.847-.55l-.49-1.069A2.686,2.686,0,0,0,11.511.991,2.763,2.763,0,0,0,9,2.6L8.51,3.664a.933.933,0,0,1-.847.55.847.847,0,0,1-.327-.059l-1.1-.416a2.709,2.709,0,0,0-.965-.178A2.761,2.761,0,0,0,3.045,4.734a2.69,2.69,0,0,0-.312,2.48l.416,1.1a.941.941,0,0,1-.49,1.173l-1.069.49a2.681,2.681,0,0,0,.045,4.916Zm.728-3.312,1.069-.49A2.712,2.712,0,0,0,4.842,7.675l-.416-1.1a.886.886,0,0,1,.1-.847.907.907,0,0,1,1.1-.342l1.1.416a2.63,2.63,0,0,0,.951.178h0a2.727,2.727,0,0,0,2.465-1.589l.49-1.069a.911.911,0,0,1,.847-.55.924.924,0,0,1,.847.55l.49,1.069a2.727,2.727,0,0,0,2.465,1.589,2.63,2.63,0,0,0,.951-.178l1.1-.416a.952.952,0,0,1,1.1.342.886.886,0,0,1,.1.847l-.416,1.1a2.726,2.726,0,0,0,1.411,3.416l1.069.49a.911.911,0,0,1,.55.847.924.924,0,0,1-.55.847l-1.069.49A2.712,2.712,0,0,0,18.12,17.18l.416,1.1a.886.886,0,0,1-.1.847.907.907,0,0,1-1.1.342l-1.1-.416a2.63,2.63,0,0,0-.951-.178,2.727,2.727,0,0,0-2.465,1.589l-.49,1.069a.911.911,0,0,1-.847.55.924.924,0,0,1-.847-.55l-.49-1.069a2.727,2.727,0,0,0-2.465-1.589,2.63,2.63,0,0,0-.951.178l-1.1.416a.952.952,0,0,1-1.1-.342.886.886,0,0,1-.1-.847l.416-1.1a2.726,2.726,0,0,0-1.411-3.416l-1.069-.49a.911.911,0,0,1-.55-.847A.924.924,0,0,1,2.362,11.581Z" transform="translate(0 -0.991)" fill="#2d5bff"/><path d="M148.928,153.214a3.862,3.862,0,1,0-3.862-3.862A3.873,3.873,0,0,0,148.928,153.214Zm0-5.941a2.079,2.079,0,1,1-2.079,2.079A2.085,2.085,0,0,1,148.928,147.273Z" transform="translate(-137.462 -137.916)" fill="#2d5bff"/></g></svg>