<svg xmlns="http://www.w3.org/2000/svg" width="16" height="16" viewBox="0 0 16 16"><path d="M16.381,14.439l-2.071-1.725a.555.555,0,0,0-.559-.03l-1.15.767a.728.728,0,0,1-.407.122,4.786,4.786,0,0,1-1.024-.144,6.179,6.179,0,0,1-4.6-4.6A4.781,4.781,0,0,1,6.422,7.8.727.727,0,0,1,6.544,7.4l.767-1.149a.545.545,0,0,0-.03-.559L5.556,3.617a.342.342,0,0,0-.584,0l-1.143,1.4a2.039,2.039,0,0,0-.316,1.628.727.727,0,0,1,.021.084,3.737,3.737,0,0,0,.114.4,9.348,9.348,0,0,0,.523,1.25,16.62,16.62,0,0,0,3.178,4.266,16.608,16.608,0,0,0,4.267,3.177,9.354,9.354,0,0,0,1.251.523,3.858,3.858,0,0,0,.4.114.727.727,0,0,1,.1.027,1.994,1.994,0,0,0,1.612-.321l1.4-1.143A.341.341,0,0,0,16.381,14.439Zm-3.437-2.965a2,2,0,0,1,2.3.123l2.071,1.725a1.788,1.788,0,0,1-.012,2.827l-1.4,1.143a3.432,3.432,0,0,1-2.956.588q-.27-.062-.534-.151a10.8,10.8,0,0,1-1.447-.6,18.066,18.066,0,0,1-4.647-3.45A18.063,18.063,0,0,1,2.868,9.03a10.79,10.79,0,0,1-.6-1.447,5.466,5.466,0,0,1-.152-.542A3.474,3.474,0,0,1,2.7,4.095L3.846,2.7a1.79,1.79,0,0,1,2.828-.012L8.4,4.756a1.988,1.988,0,0,1,.123,2.3L7.893,8a4.3,4.3,0,0,0,.088.5,4.758,4.758,0,0,0,.737,1.642,4.7,4.7,0,0,0,1.144,1.144,4.761,4.761,0,0,0,1.642.737,4.221,4.221,0,0,0,.5.088l.943-.628Z" transform="translate(-2 -2)" fill="#fff"/></svg>