<svg xmlns="http://www.w3.org/2000/svg" width="32" height="32" viewBox="0 0 32 32"><g transform="translate(2.279 4.173)"><path d="M0,0H32V32H0Z" transform="translate(-2.279 -4.173)" fill="none"/><path d="M54.951,8.167a1.48,1.48,0,0,0,.363-1.525,1.447,1.447,0,0,0-1.2-1.016l-4.392-.653a.376.376,0,0,1-.29-.218L47.474.762A1.558,1.558,0,0,0,46.167,0a1.493,1.493,0,0,0-1.343.835L42.9,4.719l1.125.181,1.742-3.557a.382.382,0,0,1,.69,0l1.96,3.993a1.454,1.454,0,0,0,1.125.8l4.392.653a.462.462,0,0,1,.327.254.41.41,0,0,1-.109.4l-3.194,3.085a1.464,1.464,0,0,0-.436,1.307l.762,4.356a.432.432,0,0,1-.145.4.4.4,0,0,1-.4.036L46.857,14.52a1.4,1.4,0,0,0-1.379,0l-2.142,1.125.036.218a1.919,1.919,0,0,1-.073,1.016l2.686-1.416a.33.33,0,0,1,.363,0l3.92,2.069a1.506,1.506,0,0,0,1.561-.109,1.405,1.405,0,0,0,.581-1.452l-.762-4.356a.477.477,0,0,1,.109-.363Z" transform="translate(-27.551 2.515)" fill="#2d5bff" stroke="#2d5bff" stroke-width="0.4"/><path d="M18.1,6.97A1.255,1.255,0,0,0,17.043,6.1L12.65,5.446a.579.579,0,0,1-.436-.327l-1.96-3.993a1.292,1.292,0,0,0-2.323,0L5.971,5.119a.579.579,0,0,1-.436.327L1.143,6.1A1.255,1.255,0,0,0,.091,6.97,1.323,1.323,0,0,0,.417,8.313L3.576,11.4a.679.679,0,0,1,.181.508l-.762,4.356a1.3,1.3,0,0,0,.508,1.27,1.206,1.206,0,0,0,.762.254,1.283,1.283,0,0,0,.617-.145L8.8,15.573a.673.673,0,0,1,.254-.073.673.673,0,0,1,.254.073l3.92,2.069a1.193,1.193,0,0,0,.617.145,1.206,1.206,0,0,0,.762-.254,1.233,1.233,0,0,0,.508-1.27l-.762-4.356a.564.564,0,0,1,.181-.508L17.7,8.313A1.286,1.286,0,0,0,18.1,6.97Z" transform="translate(-0.241 2.26)" fill="#2d5bff" stroke="#2d5bff" stroke-width="0.4"/></g></svg>